<?xml version="1.0" encoding="UTF-8" standalone="no"?>
<!-- Created with Inkscape (http://www.inkscape.org/) -->

<svg
   width="40"
   height="50"
   viewBox="0 0 40 50"
   version="1.1"
   id="svg5"
   inkscape:version="1.1.2 (0a00cf5339, 2022-02-04)"
   sodipodi:docname="footsteps.svg"
   xmlns:inkscape="http://www.inkscape.org/namespaces/inkscape"
   xmlns:sodipodi="http://sodipodi.sourceforge.net/DTD/sodipodi-0.dtd"
   xmlns="http://www.w3.org/2000/svg"
   xmlns:svg="http://www.w3.org/2000/svg">
  <sodipodi:namedview
     id="namedview7"
     pagecolor="#ffffff"
     bordercolor="#666666"
     borderopacity="1.0"
     inkscape:pageshadow="2"
     inkscape:pageopacity="0.0"
     inkscape:pagecheckerboard="0"
     inkscape:document-units="mm"
     showgrid="false"
     fit-margin-top="0"
     fit-margin-left="0"
     fit-margin-right="0"
     fit-margin-bottom="0"
     inkscape:zoom="3.0094308"
     inkscape:cx="-4.3197537"
     inkscape:cy="107.16312"
     inkscape:window-width="1920"
     inkscape:window-height="1029"
     inkscape:window-x="0"
     inkscape:window-y="25"
     inkscape:window-maximized="1"
     inkscape:current-layer="layer1" />
  <defs
     id="defs2" />
  <g
     inkscape:label="Layer 1"
     inkscape:groupmode="layer"
     id="layer1"
     transform="translate(-73.103261,-133.39779)">
    <path
       style="fill:#fff;stroke-width:2px;stroke:#000;"
       d="m 95.004629,180.18292 c -2.07068,-1.04607 -2.91983,-3.14227 -2.39424,-5.9104 0.33519,-1.76541 1.05908,-3.54924 1.43873,-3.54538 0.1661,0.002 2.14366,0.47795 4.39458,1.05834 2.250921,0.58039 4.142541,1.05526 4.203611,1.05526 0.0611,0 0.0353,0.64458 -0.0573,1.43241 -0.32606,2.77433 -1.78508,5.1243 -3.730011,6.00776 -1.42191,0.64588 -2.4338,0.62017 -3.85536,-0.098 z m 3.9767,-10.34282 c -2.25557,-0.58223 -4.12858,-1.0757 -4.16224,-1.09661 -0.0337,-0.0209 0.17493,-1.2561 0.46353,-2.74489 0.39323,-2.02852 0.51558,-3.68192 0.48823,-6.59748 -0.0273,-2.9032 0.0766,-4.31569 0.40913,-5.56558 1.35326,-5.08628 3.56738,-7.45314 6.972201,-7.45314 3.10596,0 5.37214,1.85341 6.42191,5.25219 0.94732,3.06705 0.61532,6.18069 -1.08512,10.17665 -0.79536,1.86907 -4.03092,7.45861 -4.9418,8.53712 l -0.4648,0.55034 z m -17.08618,-1.87257 c -1.80324,-0.78519 -3.1265,-3.2317 -3.44865,-6.37601 l -0.16918,-1.65127 2.34836,-0.32063 c 1.2916,-0.17635 3.39235,-0.46945 4.66833,-0.65134 l 2.31998,-0.3307 0.4239,1.45818 c 0.59015,2.03006 0.38971,4.93047 -0.43269,6.26114 -1.05819,1.7122 -3.73973,2.46858 -5.71005,1.61063 z m -4.4107,-11.46481 c -1.05486,-1.95277 -2.99818,-6.64721 -3.6302,-8.76942 -1.15633,-3.88273 -0.97641,-7.3807 0.53346,-10.37175 2.18392,-4.32631 7.32923,-5.30943 10.26833,-1.96198 1.11182,1.2663 1.75412,2.75633 2.27483,5.27727 0.51559,2.49609 0.51291,3.87951 -0.0136,7.02848 -0.30748,1.83907 -0.37725,3.37986 -0.26,5.74204 l 0.16025,3.2285 -0.86341,0.13988 c -2.33276,0.37794 -6.63706,0.94375 -7.17937,0.94375 -0.45772,0 -0.78205,-0.31591 -1.2903,-1.25677 z"
       id="path93" />
  </g>
</svg>
